<svg width="138" height="138" viewBox="0 0 138 138" fill="none" xmlns="http://www.w3.org/2000/svg">
<path d="M69 0C30.9511 0 0 30.9511 0 69C0 107.049 30.9511 138 69 138C107.049 138 138 107.049 138 69C138 30.9511 107.049 0 69 0ZM66.1249 115C61.3688 115 57.4999 111.131 57.4999 106.375C57.4999 101.619 61.3688 97.7501 66.1249 97.7501C70.8811 97.7501 74.7499 101.619 74.7499 106.375C74.7499 111.131 70.8811 115 66.1249 115ZM74.7499 79.9273V89.1251C74.7499 90.7142 73.464 92.0002 71.8748 92.0002H60.375C58.7858 92.0002 57.4999 90.7142 57.4999 89.1251V74.7502C57.4999 68.4105 62.6604 63.2501 69 63.2501C75.3396 63.2501 80.5001 58.0896 80.5001 51.75C80.5001 45.4104 75.3396 40.2499 69 40.2499C62.6604 40.2499 57.4999 45.4104 57.4999 51.75V54.6251C57.4999 56.2142 56.214 57.5002 54.6248 57.5002H43.125C41.5358 57.5002 40.2499 56.2142 40.2499 54.6251V51.75C40.2499 35.8981 53.1481 22.9999 69 22.9999C84.8519 22.9999 97.7501 35.8983 97.7501 51.75C97.7501 65.5468 88.03 77.2377 74.7499 79.9273Z" fill="#11141A"/>
</svg>
