<svg xmlns="http://www.w3.org/2000/svg" xmlns:xlink="http://www.w3.org/1999/xlink" width="163" height="184" viewBox="0 0 163 184"><defs><style>.a{fill:#322a7d;}.b{fill:#293439;}.c{fill:#d98f67;}.d{fill:#e59e76;}.e{fill:#000001;}.f{clip-path:url(#a);}.g{fill:#ffa101;}</style><clipPath id="a"><circle class="a" cx="81.5" cy="81.5" r="81.5" transform="translate(0 -0.1)"/></clipPath></defs><g transform="translate(-266 -429)"><circle class="b" cx="81.5" cy="81.5" r="81.5" transform="translate(266 450)"/><circle class="c" cx="8.46" cy="8.46" r="8.46" transform="translate(376.676 486.689)"/><circle class="c" cx="8.46" cy="8.46" r="8.46" transform="translate(303.358 486.689)"/><path class="c" d="M37.155,73.373,17,49.186V25H57.311V49.186Z" transform="translate(310.858 499.808)"/><path class="d" d="M85.559,27.471C85.559-3.165,13,7.316,13,27.471V55.689a36.28,36.28,0,0,0,72.559,0Z" transform="translate(298.734 440.053)"/><path class="e" d="M52.311,4C27.721,4,12,23.752,12,48.342v9.271l8.062,6.853V44.311L68.435,28.186,84.559,44.311V64.466l8.062-6.853V48.342c0-16.124-4.031-32.249-24.186-36.28L64.4,4H52.311Z" transform="translate(295.703 425)"/><g class="f" transform="translate(266 450.1)"><path class="g" d="M86.769,31h0a46.666,46.666,0,0,1-19.231,3.846A46.666,46.666,0,0,1,48.307,31S6,38.692,6,81l66.229,72.231L129.076,81C129.076,38.692,86.769,31,86.769,31Z" transform="translate(14.53 55.123)"/></g></g></svg>