<svg xmlns="http://www.w3.org/2000/svg" width="48" height="48" viewBox="0 0 48 48"><defs><style>.a{fill:#6eae3c;opacity:0.3;}.b{fill:#2ec114;}</style></defs><g transform="translate(-1208 -403)"><rect class="a" width="48" height="48" rx="15" transform="translate(1208 403)"/><path class="b" d="M15,20V17.5H12.5V15H15V12.5h2.5V15H20v2.5H17.5V20ZM0,20v-1.25A6.189,6.189,0,0,1,6.25,12.5H10V15H6.25a3.641,3.641,0,0,0-3.5,2.5H10V20ZM3.751,6.249V5a5,5,0,0,1,10,0v1.25a5,5,0,1,1-10,0ZM6.25,5v1.25a2.5,2.5,0,0,0,5,0V5a2.5,2.5,0,1,0-5,0Z" transform="translate(1222 418)"/></g></svg>