<svg width="16" height="16" viewBox="0 0 16 16" fill="none" xmlns="http://www.w3.org/2000/svg">
<rect width="16" height="16" fill="white" fill-opacity="0.01"/>
<mask id="mask0" mask-type="alpha" maskUnits="userSpaceOnUse" x="1" y="0" width="14" height="16">
<path fill-rule="evenodd" clip-rule="evenodd" d="M6.00004 0.666672H10C10.7364 0.666672 11.3334 1.26363 11.3334 2.00001V2.66667H13.3334C14.0698 2.66667 14.6667 3.26363 14.6667 4.00001V5.33334C14.6667 6.06972 14.0698 6.66667 13.3334 6.66667H13.2799L12.6667 14C12.6667 14.7364 12.0698 15.3333 11.3334 15.3333H4.66671C3.93033 15.3333 3.33337 14.7364 3.33567 14.0554L2.71995 6.66667H2.66671C1.93033 6.66667 1.33337 6.06972 1.33337 5.33334V4.00001C1.33337 3.26363 1.93033 2.66667 2.66671 2.66667H4.66671V2.00001C4.66671 1.26363 5.26366 0.666672 6.00004 0.666672ZM2.66671 4.00001L4.66671 4H11.3334L13.3334 4.00001V5.33334H2.66671V4.00001ZM4.05771 6.66667H11.9422L11.3357 13.9446L11.3334 14H4.66672L4.05771 6.66667ZM10 2.00001V2.66667H6.00004V2.00001H10Z" fill="white"/>
</mask>
<g mask="url(#mask0)">
<rect width="16" height="16" fill="#4F4F4F"/>
</g>
</svg>
