<svg width="16" height="16" viewBox="0 0 16 16" fill="none" xmlns="http://www.w3.org/2000/svg">
<rect width="16" height="16" fill="white" fill-opacity="0.01"/>
<mask id="mask0" mask-type="alpha" maskUnits="userSpaceOnUse" x="1" y="1" width="14" height="14">
<path fill-rule="evenodd" clip-rule="evenodd" d="M14.6667 13.3333V8.66666H13.3334V13.3333H2.66671V2.66666H7.33337V1.33333H2.66671C1.93033 1.33333 1.33337 1.93028 1.33337 2.66666V13.3333C1.33337 14.0697 1.93033 14.6667 2.66671 14.6667H13.3334C14.0698 14.6667 14.6667 14.0697 14.6667 13.3333ZM12.7854 1.81561C12.4799 1.50761 12.0614 1.33333 11.6249 1.33333C11.1889 1.33333 10.771 1.50721 10.4636 1.81641L4.88437 7.39561C4.38582 7.83488 4.059 8.48855 4.00221 9.19153L4.00004 11.3349V12.0015H6.75644C7.51264 11.9497 8.17272 11.6197 8.63838 11.0825L14.186 5.53722C14.4938 5.22943 14.6667 4.81199 14.6667 4.37671C14.6667 3.94144 14.4938 3.52399 14.186 3.21621L12.7854 1.81561ZM6.70936 10.6699C7.06551 10.6447 7.39703 10.4789 7.66324 10.1744L11.7045 6.13315L9.86831 4.29684L5.79744 8.36639C5.52734 8.60528 5.36025 8.93948 5.33337 9.24521V10.6686L6.70936 10.6699ZM10.8113 3.35419L12.6473 5.19034L13.2432 4.59441C13.301 4.53667 13.3334 4.45837 13.3334 4.37671C13.3334 4.29506 13.301 4.21676 13.2432 4.15902L11.8408 2.75657C11.7837 2.69903 11.706 2.66666 11.6249 2.66666C11.5439 2.66666 11.4662 2.69903 11.4091 2.75657L10.8113 3.35419Z" fill="white"/>
</mask>
<g mask="url(#mask0)">
<rect width="16" height="16" fill="#4F4F4F"/>
</g>
</svg>
