<svg width="16" height="16" viewBox="0 0 16 16" fill="none" xmlns="http://www.w3.org/2000/svg">
<rect width="16" height="16" fill="white" fill-opacity="0.01"/>
<mask id="mask0" mask-type="alpha" maskUnits="userSpaceOnUse" x="0" y="2" width="16" height="12">
<path fill-rule="evenodd" clip-rule="evenodd" d="M13.1775 5.18744C11.5571 3.62042 9.81838 2.66667 8.00002 2.66667C6.18165 2.66667 4.4429 3.62042 2.82249 5.18744C2.26968 5.72204 1.76955 6.29278 1.32929 6.86375C1.06362 7.2083 0.874998 7.47933 0.771725 7.64081L0.541992 8L0.771725 8.3592C0.874998 8.52067 1.06362 8.79171 1.32929 9.13626C1.76955 9.70723 2.26968 10.278 2.82249 10.8126C4.4429 12.3796 6.18165 13.3333 8.00002 13.3333C9.81838 13.3333 11.5571 12.3796 13.1775 10.8126C13.7304 10.278 14.2305 9.70723 14.6707 9.13626C14.9364 8.79171 15.125 8.52067 15.2283 8.3592L15.458 8L15.2283 7.64081C15.125 7.47933 14.9364 7.2083 14.6707 6.86375C14.2305 6.29278 13.7304 5.72204 13.1775 5.18744ZM12.2507 6.14591C12.7535 6.63214 13.2118 7.15515 13.6149 7.67792C13.7019 7.79083 13.7824 7.89855 13.8559 8.00001C13.7824 8.10146 13.7019 8.20918 13.6149 8.32209C13.2118 8.84486 12.7535 9.36787 12.2507 9.8541C10.855 11.2038 9.4034 12 8.00002 12C6.59663 12 5.14501 11.2038 3.74938 9.8541C3.24657 9.36787 2.78828 8.84486 2.38518 8.32209C2.29812 8.20918 2.21767 8.10146 2.14413 8.00001C2.21767 7.89855 2.29812 7.79083 2.38518 7.67792C2.78828 7.15515 3.24657 6.63214 3.74938 6.14591C5.14501 4.79626 6.59663 4.00001 8.00002 4.00001C9.4034 4.00001 10.855 4.79626 12.2507 6.14591ZM8.00001 10.6667C6.52725 10.6667 5.33334 9.47276 5.33334 8.00001C5.33334 6.52725 6.52725 5.33334 8.00001 5.33334C9.47277 5.33334 10.6667 6.52725 10.6667 8.00001C10.6667 9.47276 9.47277 10.6667 8.00001 10.6667ZM9.33334 8C9.33334 8.73638 8.73639 9.33334 8.00001 9.33334C7.26363 9.33334 6.66667 8.73638 6.66667 8C6.66667 7.26363 7.26363 6.66667 8.00001 6.66667C8.73639 6.66667 9.33334 7.26363 9.33334 8Z" fill="white"/>
</mask>
<g mask="url(#mask0)">
<rect width="16" height="16" fill="#4F4F4F"/>
</g>
</svg>
