<svg xmlns="http://www.w3.org/2000/svg" width="48" height="48" viewBox="0 0 48 48"><defs><style>.a,.b{fill:#f35162;}.a{opacity:0.3;}</style></defs><g transform="translate(-1208 -323)"><rect class="a" width="48" height="48" rx="15" transform="translate(1208 323)"/><path class="b" d="M1,18.214a1.147,1.147,0,0,0,1.214,1.214H16.786A1.147,1.147,0,0,0,18,18.214V7.286a1.147,1.147,0,0,0-1.214-1.214H7.071V4.857A2.436,2.436,0,0,1,9.5,2.429a2.185,2.185,0,0,1,1.821.85l.85.85L13.993,2.55l-.85-.971A5.264,5.264,0,0,0,9.5,0,4.871,4.871,0,0,0,4.643,4.857V6.071H2.214A1.147,1.147,0,0,0,1,7.286Zm8.5-8.5a2.436,2.436,0,0,1,2.429,2.429,2.35,2.35,0,0,1-1.214,2.064v1.579H8.286V14.207a2.35,2.35,0,0,1-1.214-2.064A2.436,2.436,0,0,1,9.5,9.714Z" transform="translate(1222 336)"/></g></svg>